<svg width="255" height="49" viewBox="0 0 255 49" fill="none" xmlns="http://www.w3.org/2000/svg">
<path d="M26.12 38V19.36L18.84 33.24H15.76L8.48 19.36V38H2.96V9.59999H8.88L17.28 25.76L25.76 9.59999H31.64V38H26.12ZM46.4178 38.4C44.7378 38.4 43.2178 38.12 41.8578 37.56C40.4978 36.9733 39.3378 36.1867 38.3778 35.2C37.4178 34.1867 36.6711 33.04 36.1378 31.76C35.6311 30.4533 35.3778 29.08 35.3778 27.64C35.3778 25.64 35.8178 23.8133 36.6978 22.16C37.6045 20.5067 38.8845 19.1867 40.5378 18.2C42.2178 17.1867 44.1911 16.68 46.4578 16.68C48.7511 16.68 50.7111 17.1867 52.3378 18.2C53.9645 19.1867 55.2045 20.5067 56.0578 22.16C56.9378 23.7867 57.3778 25.5467 57.3778 27.44C57.3778 27.76 57.3645 28.0933 57.3378 28.44C57.3111 28.76 57.2845 29.0267 57.2578 29.24H41.0578C41.1645 30.3067 41.4711 31.24 41.9778 32.04C42.5111 32.84 43.1778 33.4533 43.9778 33.88C44.8045 34.28 45.6845 34.48 46.6178 34.48C47.6845 34.48 48.6845 34.2267 49.6178 33.72C50.5778 33.1867 51.2311 32.4933 51.5778 31.64L56.1778 32.92C55.6711 33.9867 54.9378 34.9333 53.9778 35.76C53.0445 36.5867 51.9378 37.24 50.6578 37.72C49.3778 38.1733 47.9645 38.4 46.4178 38.4ZM40.9378 25.84H51.8978C51.7911 24.7733 51.4845 23.8533 50.9778 23.08C50.4978 22.28 49.8578 21.6667 49.0578 21.24C48.2578 20.7867 47.3645 20.56 46.3778 20.56C45.4178 20.56 44.5378 20.7867 43.7378 21.24C42.9645 21.6667 42.3245 22.28 41.8178 23.08C41.3378 23.8533 41.0445 24.7733 40.9378 25.84ZM59.3631 27.52C59.3631 25.4933 59.7631 23.6667 60.5631 22.04C61.3631 20.3867 62.4698 19.08 63.8831 18.12C65.2965 17.16 66.9098 16.68 68.7231 16.68C70.2698 16.68 71.6565 17.0667 72.8831 17.84C74.1365 18.5867 75.1098 19.5467 75.8031 20.72V8.79999H81.1631V32C81.1631 32.56 81.2565 32.96 81.4431 33.2C81.6298 33.44 81.9498 33.5867 82.4031 33.64V38C81.4698 38.1867 80.7098 38.28 80.1231 38.28C79.1631 38.28 78.3631 38.04 77.7231 37.56C77.1098 37.08 76.7631 36.4533 76.6831 35.68L76.6031 34.36C75.8298 35.6667 74.7765 36.6667 73.4431 37.36C72.1365 38.0533 70.7631 38.4 69.3231 38.4C67.8831 38.4 66.5498 38.12 65.3231 37.56C64.1231 37 63.0698 36.2267 62.1631 35.24C61.2831 34.2533 60.5898 33.1067 60.0831 31.8C59.6031 30.4667 59.3631 29.04 59.3631 27.52ZM75.8031 30.32V25.32C75.5365 24.5467 75.1098 23.8533 74.5231 23.24C73.9365 22.6267 73.2831 22.1467 72.5631 21.8C71.8431 21.4267 71.1231 21.24 70.4031 21.24C69.5765 21.24 68.8298 21.4133 68.1631 21.76C67.4965 22.1067 66.9098 22.5733 66.4031 23.16C65.9231 23.7467 65.5498 24.4267 65.2831 25.2C65.0431 25.9733 64.9231 26.7867 64.9231 27.64C64.9231 28.4933 65.0565 29.3067 65.3231 30.08C65.6165 30.8267 66.0298 31.48 66.5631 32.04C67.0965 32.6 67.7098 33.04 68.4031 33.36C69.1231 33.68 69.8965 33.84 70.7231 33.84C71.2298 33.84 71.7365 33.76 72.2431 33.6C72.7765 33.4133 73.2698 33.1733 73.7231 32.88C74.2031 32.56 74.6165 32.1867 74.9631 31.76C75.3365 31.3067 75.6165 30.8267 75.8031 30.32ZM86.4244 38V17.04H91.7844V38H86.4244ZM86.4244 14.12V8.79999H91.7844V14.12H86.4244Z" fill="#2E86C1"/>
<path d="M140.88 17.04C140.693 16.8533 140.347 16.6 139.84 16.28C139.36 15.96 138.76 15.6533 138.04 15.36C137.347 15.0667 136.587 14.8133 135.76 14.6C134.933 14.36 134.093 14.24 133.24 14.24C131.747 14.24 130.613 14.52 129.84 15.08C129.093 15.64 128.72 16.4267 128.72 17.44C128.72 18.2133 128.96 18.8267 129.44 19.28C129.92 19.7333 130.64 20.12 131.6 20.44C132.56 20.76 133.76 21.1067 135.2 21.48C137.067 21.9333 138.68 22.4933 140.04 23.16C141.427 23.8 142.48 24.6533 143.2 25.72C143.947 26.76 144.32 28.1467 144.32 29.88C144.32 31.4 144.04 32.7067 143.48 33.8C142.92 34.8667 142.147 35.7333 141.16 36.4C140.173 37.0667 139.053 37.56 137.8 37.88C136.547 38.1733 135.213 38.32 133.8 38.32C132.387 38.32 130.973 38.1733 129.56 37.88C128.147 37.5867 126.787 37.1733 125.48 36.64C124.173 36.08 122.973 35.4133 121.88 34.64L124.32 29.88C124.56 30.12 124.987 30.44 125.6 30.84C126.213 31.2133 126.96 31.6 127.84 32C128.72 32.3733 129.68 32.6933 130.72 32.96C131.76 33.2267 132.813 33.36 133.88 33.36C135.373 33.36 136.507 33.1067 137.28 32.6C138.053 32.0933 138.44 31.3733 138.44 30.44C138.44 29.5867 138.133 28.92 137.52 28.44C136.907 27.96 136.053 27.5467 134.96 27.2C133.867 26.8267 132.573 26.4267 131.08 26C129.293 25.4933 127.8 24.9333 126.6 24.32C125.4 23.68 124.507 22.88 123.92 21.92C123.333 20.96 123.04 19.76 123.04 18.32C123.04 16.3733 123.493 14.7467 124.4 13.44C125.333 12.1067 126.587 11.1067 128.16 10.44C129.733 9.74666 131.48 9.39999 133.4 9.39999C134.733 9.39999 135.987 9.54666 137.16 9.83999C138.36 10.1333 139.48 10.52 140.52 11C141.56 11.48 142.493 12 143.32 12.56L140.88 17.04ZM147.654 30.16V17.04H153.014V29C153.014 30.6 153.307 31.8133 153.894 32.64C154.481 33.44 155.347 33.84 156.494 33.84C157.187 33.84 157.867 33.7067 158.534 33.44C159.227 33.1467 159.854 32.72 160.414 32.16C161.001 31.6 161.494 30.8933 161.894 30.04V17.04H167.254V32C167.254 32.56 167.347 32.96 167.534 33.2C167.747 33.44 168.081 33.5867 168.534 33.64V38C168.001 38.08 167.547 38.1333 167.174 38.16C166.827 38.2133 166.507 38.24 166.214 38.24C165.254 38.24 164.467 38.0267 163.854 37.6C163.267 37.1467 162.921 36.5333 162.814 35.76L162.694 34.08C161.761 35.4933 160.561 36.5733 159.094 37.32C157.627 38.04 156.014 38.4 154.254 38.4C152.094 38.4 150.454 37.7067 149.334 36.32C148.214 34.9067 147.654 32.8533 147.654 30.16ZM185.141 38.4C183.514 38.4 182.074 38.04 180.821 37.32C179.594 36.5733 178.634 35.5733 177.941 34.32V46.52H172.581V17.04H177.261V20.64C178.061 19.4133 179.074 18.4533 180.301 17.76C181.527 17.04 182.927 16.68 184.501 16.68C185.914 16.68 187.207 16.96 188.381 17.52C189.581 18.08 190.621 18.8667 191.501 19.88C192.381 20.8667 193.061 22.0133 193.541 23.32C194.047 24.6 194.301 25.9867 194.301 27.48C194.301 29.5067 193.901 31.3467 193.101 33C192.327 34.6533 191.247 35.9733 189.861 36.96C188.501 37.92 186.927 38.4 185.141 38.4ZM183.341 33.84C184.167 33.84 184.914 33.6667 185.581 33.32C186.247 32.9733 186.821 32.5067 187.301 31.92C187.807 31.3067 188.181 30.6267 188.421 29.88C188.687 29.1067 188.821 28.3067 188.821 27.48C188.821 26.6 188.674 25.7867 188.381 25.04C188.114 24.2933 187.714 23.64 187.181 23.08C186.647 22.4933 186.021 22.04 185.301 21.72C184.607 21.4 183.847 21.24 183.021 21.24C182.514 21.24 181.994 21.3333 181.461 21.52C180.954 21.68 180.461 21.92 179.981 22.24C179.501 22.56 179.074 22.9333 178.701 23.36C178.354 23.7867 178.101 24.2533 177.941 24.76V29.68C178.261 30.4533 178.687 31.16 179.221 31.8C179.781 32.44 180.421 32.9467 181.141 33.32C181.861 33.6667 182.594 33.84 183.341 33.84ZM210.492 38.4C208.866 38.4 207.426 38.04 206.172 37.32C204.946 36.5733 203.986 35.5733 203.292 34.32V46.52H197.932V17.04H202.612V20.64C203.412 19.4133 204.426 18.4533 205.652 17.76C206.879 17.04 208.279 16.68 209.852 16.68C211.266 16.68 212.559 16.96 213.732 17.52C214.932 18.08 215.972 18.8667 216.852 19.88C217.732 20.8667 218.412 22.0133 218.892 23.32C219.399 24.6 219.652 25.9867 219.652 27.48C219.652 29.5067 219.252 31.3467 218.452 33C217.679 34.6533 216.599 35.9733 215.212 36.96C213.852 37.92 212.279 38.4 210.492 38.4ZM208.692 33.84C209.519 33.84 210.266 33.6667 210.932 33.32C211.599 32.9733 212.172 32.5067 212.652 31.92C213.159 31.3067 213.532 30.6267 213.772 29.88C214.039 29.1067 214.172 28.3067 214.172 27.48C214.172 26.6 214.026 25.7867 213.732 25.04C213.466 24.2933 213.066 23.64 212.532 23.08C211.999 22.4933 211.372 22.04 210.652 21.72C209.959 21.4 209.199 21.24 208.372 21.24C207.866 21.24 207.346 21.3333 206.812 21.52C206.306 21.68 205.812 21.92 205.332 22.24C204.852 22.56 204.426 22.9333 204.052 23.36C203.706 23.7867 203.452 24.2533 203.292 24.76V29.68C203.612 30.4533 204.039 31.16 204.572 31.8C205.132 32.44 205.772 32.9467 206.492 33.32C207.212 33.6667 207.946 33.84 208.692 33.84ZM223.244 8.79999H228.604V31.28C228.604 32.24 228.764 32.8933 229.084 33.24C229.404 33.56 229.844 33.72 230.404 33.72C230.83 33.72 231.27 33.6667 231.724 33.56C232.177 33.4533 232.577 33.32 232.924 33.16L233.644 37.24C232.924 37.5867 232.084 37.8533 231.124 38.04C230.164 38.2267 229.297 38.32 228.524 38.32C226.844 38.32 225.537 37.88 224.604 37C223.697 36.0933 223.244 34.8133 223.244 33.16V8.79999ZM235.403 42.08C235.883 42.1867 236.323 42.28 236.723 42.36C237.15 42.44 237.51 42.48 237.803 42.48C238.31 42.48 238.723 42.3467 239.043 42.08C239.39 41.84 239.723 41.3867 240.043 40.72C240.363 40.08 240.697 39.1733 241.043 38L232.763 17.04H238.323L243.963 32.52L248.923 17.04H254.043L245.243 42.16C244.923 43.0933 244.43 43.9333 243.763 44.68C243.123 45.4533 242.31 46.0533 241.323 46.48C240.363 46.9333 239.283 47.16 238.083 47.16C237.657 47.16 237.23 47.12 236.803 47.04C236.377 46.9867 235.91 46.88 235.403 46.72V42.08Z" fill="#1B4F72"/>
<mask id="mask0_11_3162" style="mask-type:luminance" maskUnits="userSpaceOnUse" x="85" y="0" width="49" height="49">
<path d="M123.836 2.52724e-05L85 9.58075L94.5807 48.4164L133.416 38.8357L123.836 2.52724e-05Z" fill="white"/>
</mask>
<g mask="url(#mask0_11_3162)">
<mask id="mask1_11_3162" style="mask-type:luminance" maskUnits="userSpaceOnUse" x="85" y="0" width="49" height="49">
<path d="M85.3868 9.81446L123.601 0.386963L133.029 38.6014L94.8143 48.0289L85.3868 9.81446Z" fill="white"/>
</mask>
<g mask="url(#mask1_11_3162)">
<path d="M123.677 1.7202C123.917 1.32311 123.799 0.845493 123.402 0.605572C123.005 0.365636 122.527 0.483465 122.287 0.880552L117.549 8.72155C116.814 8.48078 116.037 8.75661 115.558 9.5507C115.198 10.1461 114.581 10.383 113.905 10.3807C111.757 10.2346 109.566 11.2822 108.367 13.2673L98.1314 30.3199L97.3372 29.8401C96.543 29.3602 95.5081 29.6155 95.0285 30.4096C94.5486 31.2038 94.8039 32.2388 95.598 32.7184L99.9653 35.3573L96.5469 41.0148L95.6537 40.4751C94.9588 40.0553 94.0036 40.2909 93.5838 40.9858C93.1639 41.6806 93.3996 42.6358 94.0944 43.0557L99.752 46.4741C100.447 46.894 101.402 46.6583 101.822 45.9635C102.242 45.2687 102.006 44.3135 101.311 43.8936L100.418 43.3539L103.837 37.6964L108.204 40.3353C108.998 40.8151 110.033 40.5598 110.513 39.7657C110.992 38.9715 110.737 37.9366 109.943 37.4569L108.95 36.857L119.205 19.8848C120.405 17.8997 120.313 15.4731 119.185 13.6397C118.789 13.0616 118.791 12.3856 119.151 11.7901C119.631 10.9959 119.514 10.1802 118.959 9.64168C119.059 9.36332 123.557 1.9189 123.677 1.7202ZM108.22 34.9249L100.18 30.067L104.678 22.623L117.576 19.4412L108.22 34.9249Z" fill="#28B463"/>
</g>
</g>
</svg>
